<svg version="1.1" id="Layer_1" xmlns="http://www.w3.org/2000/svg" xmlns:xlink="http://www.w3.org/1999/xlink" x="0px" y="0px"
	 width="100%" viewBox="0 0 300 300" enable-background="new 0 0 300 300" xml:space="preserve">
<path fill="#FDFEFE" opacity="1.000000" stroke="none" 
	d="
M162.000000,301.000000 
	C108.000008,301.000000 54.500019,301.000000 1.000021,301.000000 
	C1.000014,201.000031 1.000014,101.000053 1.000007,1.000062 
	C100.999962,1.000041 200.999924,1.000041 300.999908,1.000021 
	C300.999939,100.999939 300.999939,200.999878 300.999969,300.999908 
	C254.833328,301.000000 208.666672,301.000000 162.000000,301.000000 
M231.982529,78.362961 
	C231.388138,77.797241 230.793762,77.231522 230.118896,76.275002 
	C230.118896,76.275002 229.812744,76.019127 229.740311,75.339218 
	C225.637665,70.229546 220.082901,69.810478 214.432861,71.286179 
	C207.896027,72.993515 203.830246,77.766167 202.769775,84.292595 
	C201.807281,90.215965 197.487442,92.358963 193.004761,93.517799 
	C188.087555,94.788963 182.612518,96.246613 178.055145,91.711380 
	C173.382721,87.061638 167.796494,85.204163 161.183792,86.599487 
	C159.276871,87.001869 157.176285,87.144836 155.272980,86.802834 
	C138.624069,83.811295 124.035622,65.116638 124.716400,50.716305 
	C125.362251,37.054840 114.170097,26.246809 100.626495,26.256973 
	C87.629829,26.266727 76.684708,37.323505 76.204720,50.379330 
	C75.709564,63.847496 87.513962,77.500412 105.125977,74.681915 
	C110.457367,73.828712 115.131996,74.800400 119.382408,77.570145 
	C131.528183,85.484840 140.867462,95.841827 145.573074,109.800095 
	C147.966492,116.899666 152.050842,122.039185 159.649063,124.230492 
	C159.929962,124.179405 160.210846,124.128326 161.287811,124.463791 
	C161.867172,124.428596 162.446518,124.393410 163.846222,124.675537 
	C170.235855,125.193237 175.562775,123.179604 179.558929,118.042160 
	C182.677170,114.033386 185.772049,110.006439 189.240158,105.766815 
	C189.240158,105.766815 189.430603,105.387184 189.739120,105.366982 
	C189.739120,105.366982 189.948395,105.139404 190.598236,105.075081 
	C191.154266,104.748138 191.710312,104.421196 193.012650,104.017776 
	C200.021133,100.931816 206.799713,99.863060 214.541168,102.681664 
	C224.198868,106.197945 234.788086,98.377884 235.475800,88.191849 
	C235.546066,87.151215 234.537308,86.037727 234.101364,84.476898 
	C234.101364,84.476898 234.036636,83.994965 234.460464,83.539848 
	C233.646820,82.021996 232.833176,80.504143 231.982529,78.362961 
M125.348862,195.311935 
	C125.262794,189.875305 125.176727,184.438660 125.304657,178.084335 
	C125.233337,171.388702 125.162018,164.693085 125.297424,157.157654 
	C125.228790,155.436523 125.160156,153.715408 125.304245,151.116577 
	C125.235992,148.420303 125.167732,145.724030 125.388542,142.330444 
	C125.291542,133.220291 125.194542,124.110153 125.314697,114.159912 
	C125.189110,112.439880 125.063530,110.719849 125.074463,108.208214 
	C123.815117,100.439362 120.113327,94.685448 111.725555,93.764160 
	C104.860703,93.010155 97.861710,92.231133 91.025208,92.770050 
	C81.780884,93.498764 75.738571,100.624741 75.497795,109.925362 
	C75.443077,120.853371 75.317276,131.781601 75.353210,142.709320 
	C75.390739,154.120132 75.583977,165.530411 75.392616,177.821243 
	C75.477745,181.539474 75.562874,185.257690 75.346786,189.867813 
	C75.303307,195.252640 75.037033,200.650330 75.346672,206.014771 
	C75.444679,207.712601 77.080948,209.321655 78.438461,211.505692 
	C92.915024,219.198547 108.602448,222.295700 125.429642,224.190826 
	C125.297722,221.460236 125.189316,219.216431 125.306580,216.061600 
	C125.228439,209.382751 125.150291,202.703888 125.348862,195.311935 
M265.236847,201.986206 
	C264.947784,201.585495 264.658752,201.184799 264.235046,200.093338 
	C258.688446,192.805389 251.361282,188.185043 242.380051,185.838425 
	C243.523056,188.195465 245.203323,189.923676 246.962494,191.567474 
	C256.001434,200.013519 256.397644,207.694870 247.080109,215.479706 
	C242.218842,219.541306 236.311005,222.719177 230.389664,225.073105 
	C213.409073,231.823349 195.447586,234.143188 177.340591,235.523117 
	C155.021439,237.224014 132.834961,236.203674 110.801826,232.305954 
	C95.695412,229.633606 81.011490,225.654251 67.693542,216.940552 
	C67.693542,216.940552 67.370903,216.834793 67.098572,216.214584 
	C65.358948,214.487762 63.619320,212.760941 61.741730,210.214233 
	C58.716702,201.940964 61.317604,195.070312 67.578568,189.612381 
	C70.688522,186.901306 71.473419,184.256119 70.154961,180.349991 
	C57.760677,183.416779 46.153793,187.671127 36.317341,195.727203 
	C28.732397,201.939301 27.592258,211.337753 33.439232,219.277283 
	C38.843922,226.616241 46.593151,230.992035 54.749596,234.344086 
	C85.013268,246.781601 116.792587,251.364883 149.291183,251.430130 
	C173.643402,251.479019 197.864792,249.190765 221.298691,242.472183 
	C233.327377,239.023529 245.096909,234.000504 256.180359,228.163773 
	C263.431824,224.345047 269.541870,217.955872 267.772552,207.319107 
	C266.944061,205.709930 266.115570,204.100754 265.236847,201.986206 
M237.548813,209.338699 
	C237.635422,180.858032 237.722443,152.377365 237.803406,123.896690 
	C237.804337,123.566177 237.735870,123.234001 237.684479,122.905006 
	C236.741531,116.869194 232.541962,113.157066 226.448074,113.057571 
	C223.450150,113.008614 220.449890,113.064590 217.451202,113.107704 
	C208.638840,113.234390 204.750168,117.194191 204.749237,126.062813 
	C204.746094,155.887390 204.753372,185.711975 204.756607,215.536560 
	C204.756805,217.331848 204.756622,219.127121 204.756622,222.280579 
	C209.727554,220.626144 213.850540,219.253937 218.718140,218.008896 
	C220.147797,217.588577 221.577454,217.168259 223.714722,216.778488 
	C225.371902,215.954315 227.029083,215.130142 229.267258,214.076569 
	C230.512360,213.368332 231.757446,212.660095 233.710693,212.082382 
	C234.849762,211.405853 235.988831,210.729324 237.548813,209.338699 
M149.960114,225.877243 
	C161.366440,225.877243 172.772781,225.877243 183.898010,225.877243 
	C184.379166,224.359268 184.653641,223.897659 184.653458,223.436142 
	C184.643448,196.703445 184.681137,169.970154 184.447891,143.239227 
	C184.428986,141.074142 182.538010,138.925385 181.167038,136.120041 
	C178.434326,135.170364 175.754044,133.654541 172.957382,133.395599 
	C168.003220,132.936935 162.978058,133.202179 157.983109,133.236923 
	C150.568329,133.288498 146.339676,137.487976 146.247894,145.016556 
	C146.162674,152.008881 146.249985,159.003220 146.247864,165.996674 
	C146.242264,184.478836 146.196915,202.961151 146.271027,221.442963 
	C146.278214,223.234406 145.043533,226.310898 149.960114,225.877243 
z"/>
<path fill="#635B79" opacity="1.000000" stroke="none" 
	d="
M125.099472,143.027756 
	C125.167732,145.724030 125.235992,148.420303 124.788429,151.569550 
	C123.550583,152.551636 122.312057,152.985764 122.194313,153.626007 
	C121.629868,156.695267 120.944397,159.838409 121.076126,162.922226 
	C121.547432,173.955597 122.332245,184.975571 122.998322,196.468948 
	C122.998116,203.290909 122.998062,209.644547 122.644989,216.057343 
	C118.080132,222.060455 117.342026,222.076889 110.119217,219.156525 
	C107.120926,217.944260 103.708313,217.793091 100.534775,216.965195 
	C98.408928,216.410614 95.579063,216.131866 94.434853,214.662430 
	C89.819977,208.735855 83.720787,211.037659 78.013260,210.971329 
	C77.080948,209.321655 75.444679,207.712601 75.346672,206.014771 
	C75.037033,200.650330 75.303307,195.252640 75.821365,189.257690 
	C76.532402,184.768311 76.768852,180.889038 77.005829,176.540497 
	C77.011826,154.383453 77.017288,132.695679 77.401543,110.921471 
	C78.186707,109.674896 78.487373,108.463234 79.022217,107.365700 
	C80.029655,105.298355 80.674179,102.497131 82.367355,101.442856 
	C85.413727,99.546013 89.385147,99.156448 90.535271,94.774612 
	C90.676575,94.236267 92.900215,94.144516 94.175880,94.019981 
	C102.924629,93.165894 110.464951,96.902496 117.817009,100.219856 
	C118.248245,102.485657 118.340843,104.648018 119.080177,106.560341 
	C121.940872,113.959633 121.397850,121.579590 121.234909,129.266647 
	C121.132744,134.086258 119.862312,139.569382 125.099472,143.027756 
z"/>
<path fill="#635B78" opacity="1.000000" stroke="none" 
	d="
M181.516953,136.769043 
	C182.538010,138.925385 184.428986,141.074142 184.447891,143.239227 
	C184.681137,169.970154 184.643448,196.703445 184.653458,223.436142 
	C184.653641,223.897659 184.379166,224.359268 183.898010,225.877243 
	C172.772781,225.877243 161.366440,225.877243 149.469879,225.403946 
	C148.638611,222.316956 147.975159,219.699188 148.008026,217.090210 
	C148.248581,197.986526 148.597595,178.883987 148.983292,159.782501 
	C149.103714,153.819183 149.910797,147.829514 149.522690,141.909683 
	C149.245499,137.681732 151.185287,137.218414 154.374084,136.930145 
	C159.628265,136.455185 164.848877,135.576157 170.107407,135.198761 
	C172.113174,135.054825 174.178513,135.864365 176.227692,136.164474 
	C177.982635,136.421509 179.753265,136.571640 181.516953,136.769043 
z"/>
<path fill="#20B6E6" opacity="1.000000" stroke="none" 
	d="
M67.370911,216.834793 
	C67.370903,216.834793 67.693542,216.940552 67.821198,217.427353 
	C68.522820,222.983368 72.956604,223.493790 76.455711,224.899750 
	C87.576279,229.368027 98.620232,234.213165 111.013885,234.371429 
	C111.708527,234.765228 112.361572,234.874481 113.341095,234.992096 
	C114.102745,235.016220 114.537910,235.031982 115.028549,235.369446 
	C116.065666,235.771851 117.047302,235.852524 118.465225,235.941132 
	C123.587212,236.338776 128.272903,236.728485 133.021912,237.431091 
	C134.063034,237.813141 135.040833,237.882324 136.486084,237.955322 
	C150.297440,237.961426 163.641357,237.963715 177.179321,238.224106 
	C178.263290,238.024002 179.153214,237.565796 180.505585,237.084961 
	C193.389435,236.794739 205.759186,236.271149 217.658890,232.039383 
	C221.331070,230.733505 225.191940,229.958267 229.186279,229.221466 
	C230.616531,231.692291 231.826935,233.881668 232.808929,236.350983 
	C226.718414,237.973114 220.854736,239.308594 214.994507,240.658981 
	C205.850296,242.766144 196.801056,245.977356 187.545624,246.761276 
	C170.030899,248.244751 152.402298,248.515594 134.812485,248.907532 
	C128.887665,249.039520 122.811218,248.611740 117.021927,247.399414 
	C100.235176,243.884125 83.524651,239.983002 66.851006,235.956696 
	C55.058739,233.109146 44.636166,227.558640 36.179104,218.685837 
	C32.186531,214.497009 31.653891,205.332596 35.390003,201.173462 
	C43.065922,192.628418 53.439590,188.678909 63.938320,185.062881 
	C64.692947,184.802963 65.718559,185.329819 67.265846,185.606827 
	C65.897690,187.541840 65.109177,189.952957 63.820194,190.259476 
	C57.698372,191.715210 58.432030,196.810440 58.197166,200.860138 
	C57.998756,204.281281 56.136082,208.699142 60.948715,211.374359 
	C63.141533,213.421555 65.256218,215.128174 67.370911,216.834793 
z"/>
<path fill="#625A78" opacity="1.000000" stroke="none" 
	d="
M223.007111,216.747940 
	C221.577454,217.168259 220.147797,217.588577 218.086609,217.690430 
	C215.997742,217.397247 214.491760,217.661469 213.097366,217.377594 
	C211.815842,217.116730 209.752716,216.452774 209.585007,215.644562 
	C208.407272,209.968796 206.099594,204.736832 207.932480,198.273956 
	C209.674164,192.132599 209.491089,184.990173 208.322693,178.624115 
	C207.403702,173.616928 206.767044,169.336227 208.444092,164.338654 
	C209.688248,160.631134 209.388382,156.258774 209.111908,152.228134 
	C208.823914,148.029327 207.114685,143.876709 207.171265,139.719482 
	C207.232498,135.220901 208.229263,130.627029 209.503021,126.275215 
	C212.234146,116.944130 212.414642,116.996361 222.209885,117.000458 
	C223.708115,117.001091 225.522400,116.469559 226.641190,117.123680 
	C229.263641,118.656944 233.511292,120.627068 233.648788,122.654465 
	C234.362228,133.174408 233.889557,143.769287 234.040848,154.335037 
	C234.123734,160.122849 234.799759,165.901840 234.894043,171.689926 
	C235.044418,180.921951 234.944458,190.158264 234.905853,199.392593 
	C234.903229,200.023148 234.458694,200.639236 234.341156,201.284195 
	C233.872238,203.857056 233.451416,206.438644 233.010132,209.383652 
	C233.005814,210.484146 233.004181,211.218002 233.002533,211.951859 
	C231.757446,212.660095 230.512360,213.368332 228.622986,214.047150 
	C224.913101,212.363174 223.744583,214.163086 223.007111,216.747940 
z"/>
<path fill="#45B3D2" opacity="1.000000" stroke="none" 
	d="
M163.025879,124.358215 
	C162.446518,124.393410 161.867172,124.428596 160.780060,124.263367 
	C160.035767,124.031258 159.807022,123.973213 159.586075,123.888809 
	C152.050842,122.039185 147.966492,116.899666 145.573074,109.800095 
	C140.867462,95.841827 131.528183,85.484840 119.382408,77.570145 
	C115.131996,74.800400 110.457367,73.828712 105.125977,74.681915 
	C87.513962,77.500412 75.709564,63.847496 76.204720,50.379330 
	C76.684708,37.323505 87.629829,26.266727 100.626495,26.256973 
	C114.170097,26.246809 125.362251,37.054840 124.716400,50.716305 
	C124.035622,65.116638 138.624069,83.811295 155.272980,86.802834 
	C157.176285,87.144836 159.276871,87.001869 161.183792,86.599487 
	C167.796494,85.204163 173.382721,87.061638 178.055145,91.711380 
	C182.612518,96.246613 188.087555,94.788963 193.004761,93.517799 
	C197.487442,92.358963 201.807281,90.215965 202.769775,84.292595 
	C203.830246,77.766167 207.896027,72.993515 214.432861,71.286179 
	C220.082901,69.810478 225.637665,70.229546 229.375366,75.690613 
	C225.008987,75.356476 221.007553,74.670944 216.644775,74.020866 
	C215.067688,74.889862 213.949402,76.203346 212.619247,76.473480 
	C207.006317,77.613373 206.177475,81.498192 205.781235,86.359734 
	C205.611008,88.448441 203.680573,90.638458 202.050934,92.290169 
	C200.608658,93.751961 198.451965,94.495026 196.649887,95.618309 
	C191.796173,98.643799 179.800919,97.452499 175.883850,93.273041 
	C172.479935,89.641129 168.408859,89.129295 163.778488,89.485435 
	C160.369629,89.747627 156.723785,90.026077 153.515930,89.120224 
	C147.891708,87.532013 142.522430,85.041008 136.998383,82.586975 
	C136.828796,81.939163 136.789673,81.547340 136.573669,81.338211 
	C127.173248,72.237000 122.080536,61.277443 122.008621,48.073917 
	C121.967468,40.517719 116.783058,35.321106 111.317223,32.408573 
	C103.461845,28.222744 94.845688,27.919062 87.053505,34.783127 
	C78.764084,42.085209 76.736069,51.285061 82.076469,62.934914 
	C84.803894,68.884682 97.206413,73.815300 104.786102,72.741959 
	C108.893799,72.160271 113.865532,71.844330 117.301697,73.622581 
	C123.628929,76.896980 129.110626,81.805252 134.987579,86.380341 
	C135.450821,87.424156 135.857208,88.129135 136.293732,88.814941 
	C139.724609,94.204971 145.114334,97.910469 146.931107,104.889473 
	C148.686844,111.634041 151.750717,118.765808 159.808899,121.324966 
	C161.060959,121.722588 162.036072,122.992241 163.112488,123.983894 
	C163.085739,124.109146 163.025879,124.358223 163.025879,124.358215 
z"/>
<path fill="#45B6D7" opacity="1.000000" stroke="none" 
	d="
M60.870579,211.033768 
	C56.136082,208.699142 57.998756,204.281281 58.197166,200.860138 
	C58.432030,196.810440 57.698372,191.715210 63.820194,190.259476 
	C65.109177,189.952957 65.897690,187.541840 67.265846,185.606827 
	C65.718559,185.329819 64.692947,184.802963 63.938320,185.062881 
	C53.439590,188.678909 43.065922,192.628418 35.390003,201.173462 
	C31.653891,205.332596 32.186531,214.497009 36.179104,218.685837 
	C44.636166,227.558640 55.058739,233.109146 66.851006,235.956696 
	C83.524651,239.983002 100.235176,243.884125 117.021927,247.399414 
	C122.811218,248.611740 128.887665,249.039520 134.812485,248.907532 
	C152.402298,248.515594 170.030899,248.244751 187.545624,246.761276 
	C196.801056,245.977356 205.850296,242.766144 214.994507,240.658981 
	C220.854736,239.308594 226.718414,237.973114 233.177887,236.293182 
	C240.736282,232.873108 247.840363,230.072250 254.617462,226.627991 
	C261.178802,223.293350 266.033051,213.092285 265.332092,206.162872 
	C266.218750,206.879868 266.882446,207.436569 267.546143,207.993256 
	C269.541870,217.955872 263.431824,224.345047 256.180359,228.163773 
	C245.096909,234.000504 233.327377,239.023529 221.298691,242.472183 
	C197.864792,249.190765 173.643402,251.479019 149.291183,251.430130 
	C116.792587,251.364883 85.013268,246.781601 54.749596,234.344086 
	C46.593151,230.992035 38.843922,226.616241 33.439232,219.277283 
	C27.592258,211.337753 28.732397,201.939301 36.317341,195.727203 
	C46.153793,187.671127 57.760677,183.416779 70.154961,180.349991 
	C71.473419,184.256119 70.688522,186.901306 67.578568,189.612381 
	C61.317604,195.070312 58.716702,201.940964 61.558483,210.614227 
	C61.207020,211.020752 61.038799,211.027252 60.870579,211.033768 
z"/>
<path fill="#605B6F" opacity="1.000000" stroke="none" 
	d="
M233.012817,209.016998 
	C233.451416,206.438644 233.872238,203.857056 234.341156,201.284195 
	C234.458694,200.639236 234.903229,200.023148 234.905853,199.392593 
	C234.944458,190.158264 235.044418,180.921951 234.894043,171.689926 
	C234.799759,165.901840 234.123734,160.122849 234.040848,154.335037 
	C233.889557,143.769287 234.362228,133.174408 233.648788,122.654465 
	C233.511292,120.627068 229.263641,118.656944 226.641190,117.123680 
	C225.522400,116.469559 223.708115,117.001091 222.209885,117.000458 
	C212.414642,116.996361 212.234146,116.944130 209.503021,126.275215 
	C208.229263,130.627029 207.232498,135.220901 207.171265,139.719482 
	C207.114685,143.876709 208.823914,148.029327 209.111908,152.228134 
	C209.388382,156.258774 209.688248,160.631134 208.444092,164.338654 
	C206.767044,169.336227 207.403702,173.616928 208.322693,178.624115 
	C209.491089,184.990173 209.674164,192.132599 207.932480,198.273956 
	C206.099594,204.736832 208.407272,209.968796 209.585007,215.644562 
	C209.752716,216.452774 211.815842,217.116730 213.097366,217.377594 
	C214.491760,217.661469 215.997742,217.397247 217.714294,217.626846 
	C213.850540,219.253937 209.727554,220.626144 204.756622,222.280579 
	C204.756622,219.127121 204.756805,217.331848 204.756607,215.536560 
	C204.753372,185.711975 204.746094,155.887390 204.749237,126.062813 
	C204.750168,117.194191 208.638840,113.234390 217.451202,113.107704 
	C220.449890,113.064590 223.450150,113.008614 226.448074,113.057571 
	C232.541962,113.157066 236.741531,116.869194 237.684479,122.905006 
	C237.735870,123.234001 237.804337,123.566177 237.803406,123.896690 
	C237.722443,152.377365 237.635422,180.858032 236.982971,209.655853 
	C235.282364,209.654327 234.147598,209.335663 233.012817,209.016998 
z"/>
<path fill="#57B3CB" opacity="1.000000" stroke="none" 
	d="
M132.958588,237.118195 
	C128.272903,236.728485 123.587212,236.338776 118.243820,235.691742 
	C116.715096,235.305542 115.844086,235.176651 114.973068,235.047729 
	C114.537910,235.031982 114.102745,235.016220 113.168106,234.748871 
	C112.103172,234.360489 111.537735,234.223694 110.972290,234.086899 
	C98.620232,234.213165 87.576279,229.368027 76.455711,224.899750 
	C72.956604,223.493790 68.522820,222.983368 67.941154,217.547485 
	C81.011490,225.654251 95.695412,229.633606 110.801826,232.305954 
	C132.834961,236.203674 155.021439,237.224014 177.340591,235.523117 
	C195.447586,234.143188 213.409073,231.823349 230.389664,225.073105 
	C236.311005,222.719177 242.218842,219.541306 247.080109,215.479706 
	C256.397644,207.694870 256.001434,200.013519 246.962494,191.567474 
	C245.203323,189.923676 243.523056,188.195465 242.380051,185.838425 
	C251.361282,188.185043 258.688446,192.805389 263.932800,200.499863 
	C262.757385,200.603226 261.884186,200.300064 260.871490,199.690308 
	C258.860199,197.566025 256.988403,195.748352 255.116638,193.930679 
	C254.726349,194.193161 254.336060,194.455643 253.945770,194.718140 
	C254.623993,197.809982 255.302231,200.901825 255.966644,204.386047 
	C254.707748,213.507568 247.773285,221.459351 239.797791,223.133362 
	C239.296234,223.397583 239.106140,223.645096 238.650208,224.020142 
	C235.185730,225.699600 232.076065,227.319824 228.966415,228.940033 
	C225.191940,229.958267 221.331070,230.733505 217.658890,232.039383 
	C205.759186,236.271149 193.389435,236.794739 180.165604,237.053436 
	C178.570557,237.351700 177.777908,237.658844 176.985260,237.966003 
	C163.641357,237.963715 150.297440,237.961426 136.266144,237.703796 
	C134.705368,237.338364 133.831970,237.228271 132.958588,237.118195 
z"/>
<path fill="#21B6E6" opacity="1.000000" stroke="none" 
	d="
M240.020294,223.048325 
	C247.773285,221.459351 254.707748,213.507568 256.240326,204.199890 
	C258.022247,202.413223 259.516632,201.205063 261.011017,199.996887 
	C261.884186,200.300064 262.757385,200.603226 264.000122,200.845245 
	C264.658752,201.184799 264.947784,201.585495 265.164429,202.673096 
	C265.097717,204.240829 265.103424,205.121689 265.109131,206.002548 
	C266.033051,213.092285 261.178802,223.293350 254.617462,226.627991 
	C247.840363,230.072250 240.736282,232.873108 233.406296,236.013245 
	C231.826935,233.881668 230.616531,231.692291 229.186279,229.221481 
	C232.076065,227.319824 235.185730,225.699600 238.869537,223.931580 
	C239.716141,223.601562 239.908340,223.356415 240.020294,223.048325 
z"/>
<path fill="#605A70" opacity="1.000000" stroke="none" 
	d="
M125.244003,142.679108 
	C119.862312,139.569382 121.132744,134.086258 121.234909,129.266647 
	C121.397850,121.579590 121.940872,113.959633 119.080177,106.560341 
	C118.340843,104.648018 118.248245,102.485657 117.817009,100.219856 
	C110.464951,96.902496 102.924629,93.165894 94.175880,94.019981 
	C92.900215,94.144516 90.676575,94.236267 90.535271,94.774612 
	C89.385147,99.156448 85.413727,99.546013 82.367355,101.442856 
	C80.674179,102.497131 80.029655,105.298355 79.022217,107.365700 
	C78.487373,108.463234 78.186707,109.674896 77.380463,110.667664 
	C76.592934,110.015778 76.205269,109.531265 75.817604,109.046761 
	C75.738571,100.624741 81.780884,93.498764 91.025208,92.770050 
	C97.861710,92.231133 104.860703,93.010155 111.725555,93.764160 
	C120.113327,94.685448 123.815117,100.439362 124.642517,108.683594 
	C122.372612,111.429985 121.883469,113.496170 125.097549,115.000008 
	C125.194542,124.110153 125.291542,133.220291 125.244003,142.679108 
z"/>
<path fill="#74707F" opacity="1.000000" stroke="none" 
	d="
M181.341995,136.444550 
	C179.753265,136.571640 177.982635,136.421509 176.227692,136.164474 
	C174.178513,135.864365 172.113174,135.054825 170.107407,135.198761 
	C164.848877,135.576157 159.628265,136.455185 154.374084,136.930145 
	C151.185287,137.218414 149.245499,137.681732 149.522690,141.909683 
	C149.910797,147.829514 149.103714,153.819183 148.983292,159.782501 
	C148.597595,178.883987 148.248581,197.986526 148.008026,217.090210 
	C147.975159,219.699188 148.638611,222.316956 149.008575,225.334778 
	C145.043533,226.310898 146.278214,223.234406 146.271027,221.442963 
	C146.196915,202.961151 146.242264,184.478836 146.247864,165.996674 
	C146.249985,159.003220 146.162674,152.008881 146.247894,145.016556 
	C146.339676,137.487976 150.568329,133.288498 157.983109,133.236923 
	C162.978058,133.202179 168.003220,132.936935 172.957382,133.395599 
	C175.754044,133.654541 178.434326,135.170364 181.341995,136.444550 
z"/>
<path fill="#605A70" opacity="1.000000" stroke="none" 
	d="
M78.225861,211.238510 
	C83.720787,211.037659 89.819977,208.735855 94.434853,214.662430 
	C95.579063,216.131866 98.408928,216.410614 100.534775,216.965195 
	C103.708313,217.793091 107.120926,217.944260 110.119217,219.156525 
	C117.342026,222.076889 118.080132,222.060455 122.821991,216.306824 
	C123.928314,216.655640 124.504608,216.814133 125.080917,216.972626 
	C125.189316,219.216431 125.297722,221.460236 125.429642,224.190826 
	C108.602448,222.295700 92.915024,219.198547 78.225861,211.238510 
z"/>
<path fill="#41B4D1" opacity="1.000000" stroke="none" 
	d="
M189.948395,105.139404 
	C189.948395,105.139404 189.739120,105.366982 189.461243,105.265198 
	C189.183350,105.163414 188.939636,104.939072 188.986771,104.629021 
	C189.354645,103.546951 189.675385,102.774933 189.998062,102.001457 
	C190.000000,102.000000 190.002914,101.996063 190.392273,101.997101 
	C192.782578,101.272285 194.735809,100.146660 196.794098,99.900917 
	C201.586258,99.328766 206.976807,97.659378 211.143311,99.159981 
	C221.531189,102.901260 226.679825,101.744156 232.368896,91.824371 
	C233.139801,89.407791 233.584534,87.182915 234.029266,84.958038 
	C234.537308,86.037727 235.546066,87.151215 235.475800,88.191849 
	C234.788086,98.377884 224.198868,106.197945 214.541168,102.681664 
	C206.799713,99.863060 200.021133,100.931816 192.293640,104.045807 
	C191.032547,104.429024 190.490463,104.784218 189.948395,105.139404 
z"/>
<path fill="#54515F" opacity="1.000000" stroke="none" 
	d="
M75.657700,109.486061 
	C76.205269,109.531265 76.592934,110.015778 77.001678,110.754097 
	C77.017288,132.695679 77.011826,154.383453 76.789421,176.532990 
	C76.285568,176.962921 75.997795,176.944977 75.709145,176.940933 
	C75.583977,165.530411 75.390739,154.120132 75.353210,142.709320 
	C75.317276,131.781601 75.443077,120.853371 75.657700,109.486061 
z"/>
<path fill="#605A70" opacity="1.000000" stroke="none" 
	d="
M122.998474,196.000610 
	C122.332245,184.975571 121.547432,173.955597 121.076126,162.922226 
	C120.944397,159.838409 121.629868,156.695267 122.194313,153.626007 
	C122.312057,152.985764 123.550583,152.551636 124.682068,152.008392 
	C125.160156,153.715408 125.228790,155.436523 124.789574,157.661102 
	C123.888634,158.639969 123.162186,159.109253 123.153297,159.591751 
	C123.047874,165.315903 122.972534,171.043930 123.115112,176.765320 
	C123.134087,177.526825 124.401428,178.257233 125.090652,179.002029 
	C125.176727,184.438660 125.262794,189.875305 124.864944,195.661224 
	C123.920174,196.007202 123.459320,196.003906 122.998474,196.000610 
z"/>
<path fill="#40B8D6" opacity="1.000000" stroke="none" 
	d="
M163.436050,124.516876 
	C163.025879,124.358223 163.085739,124.109146 163.482910,124.012939 
	C168.159424,121.723572 172.878784,120.092957 176.598099,117.183823 
	C180.557404,114.086975 183.570023,109.779808 187.309753,105.999756 
	C188.041458,105.994797 188.459381,105.991180 188.877304,105.987564 
	C185.772049,110.006439 182.677170,114.033386 179.558929,118.042160 
	C175.562775,123.179604 170.235855,125.193237 163.436050,124.516876 
z"/>
<path fill="#1CBADF" opacity="1.000000" stroke="none" 
	d="
M217.006104,73.985420 
	C221.007553,74.670944 225.008987,75.356476 229.411591,76.030563 
	C229.812744,76.019127 230.118896,76.275002 230.023956,76.771484 
	C229.620972,77.847809 229.312912,78.427650 228.628174,79.045662 
	C226.051529,79.056274 223.818039,78.772919 221.658722,79.055740 
	C217.488953,79.601852 216.548859,77.514992 217.006104,73.985420 
z"/>
<path fill="#625D70" opacity="1.000000" stroke="none" 
	d="
M125.197655,178.543182 
	C124.401428,178.257233 123.134087,177.526825 123.115112,176.765320 
	C122.972534,171.043930 123.047874,165.315903 123.153297,159.591751 
	C123.162186,159.109253 123.888634,158.639969 124.686218,158.080994 
	C125.162018,164.693085 125.233337,171.388702 125.197655,178.543182 
z"/>
<path fill="#625D70" opacity="1.000000" stroke="none" 
	d="
M122.998322,196.468948 
	C123.459320,196.003906 123.920174,196.007202 124.726578,196.017761 
	C125.150291,202.703888 125.228439,209.382751 125.193741,216.517120 
	C124.504608,216.814133 123.928314,216.655640 123.175018,216.247650 
	C122.998062,209.644547 122.998116,203.290909 122.998322,196.468948 
z"/>
<path fill="#35B8DE" opacity="1.000000" stroke="none" 
	d="
M229.004837,79.007492 
	C229.312912,78.427650 229.620972,77.847809 230.064209,76.966888 
	C230.793762,77.231522 231.388138,77.797241 231.988388,79.033279 
	C232.675049,81.134048 233.355850,82.564507 234.036652,83.994965 
	C234.036636,83.994965 234.101364,84.476898 234.065308,84.717468 
	C233.584534,87.182915 233.139801,89.407791 232.357086,91.418777 
	C231.014359,87.139099 230.009598,83.073303 229.004837,79.007492 
z"/>
<path fill="#605A70" opacity="1.000000" stroke="none" 
	d="
M75.550880,177.381088 
	C75.997795,176.944977 76.285568,176.962921 76.788895,177.002258 
	C76.768852,180.889038 76.532402,184.768311 75.971970,188.811752 
	C75.562874,185.257690 75.477745,181.539474 75.550880,177.381088 
z"/>
<path fill="#57B3CB" opacity="1.000000" stroke="none" 
	d="
M60.948715,211.374359 
	C61.038799,211.027252 61.207020,211.020752 61.627464,211.024170 
	C63.619320,212.760941 65.358948,214.487762 67.234741,216.524689 
	C65.256218,215.128174 63.141533,213.421555 60.948715,211.374359 
z"/>
<path fill="#605B6F" opacity="1.000000" stroke="none" 
	d="
M223.360916,216.763214 
	C223.744583,214.163086 224.913101,212.363174 228.332489,214.161835 
	C227.029083,215.130142 225.371902,215.954315 223.360916,216.763214 
z"/>
<path fill="#635E73" opacity="1.000000" stroke="none" 
	d="
M125.206116,114.579956 
	C121.883469,113.496170 122.372612,111.429985 124.574249,109.079399 
	C125.063530,110.719849 125.189110,112.439880 125.206116,114.579956 
z"/>
<path fill="#45B3D2" opacity="1.000000" stroke="none" 
	d="
M234.248566,83.767410 
	C233.355850,82.564507 232.675049,81.134048 232.006882,79.344940 
	C232.833176,80.504143 233.646820,82.021996 234.248566,83.767410 
z"/>
<path fill="#57B3CB" opacity="1.000000" stroke="none" 
	d="
M265.332092,206.162872 
	C265.103424,205.121689 265.097717,204.240829 265.189545,202.925781 
	C266.115570,204.100754 266.944061,205.709930 267.659363,207.656189 
	C266.882446,207.436569 266.218750,206.879868 265.332092,206.162872 
z"/>
<path fill="#666277" opacity="1.000000" stroke="none" 
	d="
M233.010132,209.383636 
	C234.147598,209.335663 235.282364,209.654327 236.772522,210.012894 
	C235.988831,210.729324 234.849762,211.405853 233.356628,212.017120 
	C233.004181,211.218002 233.005814,210.484146 233.010132,209.383636 
z"/>
<path fill="#40B8D6" opacity="1.000000" stroke="none" 
	d="
M190.273315,105.107239 
	C190.490463,104.784218 191.032547,104.429024 191.920471,104.084045 
	C191.710312,104.421196 191.154266,104.748138 190.273315,105.107239 
z"/>
<path fill="#41B4D1" opacity="1.000000" stroke="none" 
	d="
M189.058731,105.877190 
	C188.459381,105.991180 188.041458,105.994797 187.474548,105.758560 
	C187.863586,105.325493 188.401611,105.132286 188.939636,104.939072 
	C188.939636,104.939072 189.183350,105.163414 189.306976,105.275299 
	C189.430603,105.387184 189.240158,105.766815 189.058731,105.877190 
z"/>
<path fill="#40B8D6" opacity="1.000000" stroke="none" 
	d="
M159.617569,124.059647 
	C159.807022,123.973213 160.035767,124.031258 160.382019,124.070091 
	C160.210846,124.128326 159.929962,124.179405 159.617569,124.059647 
z"/>
<path fill="#2CB0D9" opacity="1.000000" stroke="none" 
	d="
M115.028549,235.369461 
	C115.844086,235.176651 116.715096,235.305542 117.807526,235.683807 
	C117.047302,235.852524 116.065666,235.771851 115.028549,235.369461 
z"/>
<path fill="#2CB0D9" opacity="1.000000" stroke="none" 
	d="
M133.021912,237.431061 
	C133.831970,237.228271 134.705368,237.338364 135.798691,237.699966 
	C135.040833,237.882324 134.063034,237.813141 133.021912,237.431061 
z"/>
<path fill="#2CB0D9" opacity="1.000000" stroke="none" 
	d="
M177.179321,238.224091 
	C177.777908,237.658844 178.570557,237.351700 179.703186,237.076065 
	C179.153214,237.565796 178.263290,238.024002 177.179321,238.224091 
z"/>
<path fill="#2CB0D9" opacity="1.000000" stroke="none" 
	d="
M111.013885,234.371429 
	C111.537735,234.223694 112.103172,234.360489 112.841614,234.740509 
	C112.361572,234.874481 111.708527,234.765228 111.013885,234.371429 
z"/>
<path fill="#20B6E7" opacity="1.000000" stroke="none" 
	d="
M188.986771,104.629021 
	C188.401611,105.132286 187.863586,105.325493 187.160767,105.759903 
	C183.570023,109.779808 180.557404,114.086975 176.598099,117.183823 
	C172.878784,120.092957 168.159424,121.723572 163.509674,123.887688 
	C162.036072,122.992241 161.060959,121.722588 159.808899,121.324966 
	C151.750717,118.765808 148.686844,111.634041 146.931107,104.889473 
	C145.114334,97.910469 139.724609,94.204971 136.293732,88.814941 
	C135.857208,88.129135 135.450821,87.424156 135.253052,86.207314 
	C135.999207,84.767105 136.522781,83.847649 137.046356,82.928192 
	C142.522430,85.041008 147.891708,87.532013 153.515930,89.120224 
	C156.723785,90.026077 160.369629,89.747627 163.778488,89.485435 
	C168.408859,89.129295 172.479935,89.641129 175.883850,93.273041 
	C179.800919,97.452499 191.796173,98.643799 196.649887,95.618309 
	C198.451965,94.495026 200.608658,93.751961 202.050934,92.290169 
	C203.680573,90.638458 205.611008,88.448441 205.781235,86.359734 
	C206.177475,81.498192 207.006317,77.613373 212.619247,76.473480 
	C213.949402,76.203346 215.067688,74.889862 216.644775,74.020866 
	C216.548859,77.514992 217.488953,79.601852 221.658722,79.055740 
	C223.818039,78.772919 226.051529,79.056274 228.628174,79.045670 
	C230.009598,83.073303 231.014359,87.139099 232.030914,91.610489 
	C226.679825,101.744156 221.531189,102.901260 211.143311,99.159981 
	C206.976807,97.659378 201.586258,99.328766 196.794098,99.900917 
	C194.735809,100.146660 192.782578,101.272285 190.334290,101.870773 
	C189.809158,101.696007 189.731369,101.648621 189.653580,101.601242 
	C189.767761,101.735130 189.881943,101.869019 189.996124,102.002914 
	C189.675385,102.774933 189.354645,103.546951 188.986771,104.629021 
z"/>
<path fill="#20B7E7" opacity="1.000000" stroke="none" 
	d="
M136.998383,82.586975 
	C136.522781,83.847649 135.999207,84.767105 135.210159,85.859596 
	C129.110626,81.805252 123.628929,76.896980 117.301697,73.622581 
	C113.865532,71.844330 108.893799,72.160271 104.786102,72.741959 
	C97.206413,73.815300 84.803894,68.884682 82.076469,62.934914 
	C76.736069,51.285061 78.764084,42.085209 87.053505,34.783127 
	C94.845688,27.919062 103.461845,28.222744 111.317223,32.408573 
	C116.783058,35.321106 121.967468,40.517719 122.008621,48.073917 
	C122.080536,61.277443 127.173248,72.237000 136.573669,81.338211 
	C136.789673,81.547340 136.828796,81.939163 136.998383,82.586975 
z"/>
<path fill="#2DB0DE" opacity="1.000000" stroke="none" 
	d="
M260.871490,199.690308 
	C259.516632,201.205063 258.022247,202.413223 256.254150,203.807526 
	C255.302231,200.901825 254.623993,197.809982 253.945770,194.718140 
	C254.336060,194.455643 254.726349,194.193161 255.116638,193.930679 
	C256.988403,195.748352 258.860199,197.566025 260.871490,199.690308 
z"/>
<path fill="#45B6D7" opacity="1.000000" stroke="none" 
	d="
M239.797791,223.133362 
	C239.908340,223.356415 239.716141,223.601562 239.224350,223.872375 
	C239.106140,223.645096 239.296234,223.397583 239.797791,223.133362 
z"/>
<path fill="#41B4D1" opacity="1.000000" stroke="none" 
	d="
M189.998062,102.001457 
	C189.881943,101.869019 189.767761,101.735130 189.653580,101.601242 
	C189.731369,101.648621 189.809158,101.696007 189.944931,101.869728 
	C190.002914,101.996063 190.000000,102.000000 189.998062,102.001457 
z"/>
</svg>