<?xml version="1.0" encoding="UTF-8" standalone="no"?>
<!-- Created with Inkscape (http://www.inkscape.org/) -->

<svg
   width="132.27533mm"
   height="129.46754mm"
   viewBox="0 0 132.27533 129.46754"
   version="1.1"
   id="svg1"
   xml:space="preserve"
   xmlns="http://www.w3.org/2000/svg"
   xmlns:svg="http://www.w3.org/2000/svg"><defs
     id="defs1" /><g
     id="layer1"
     transform="translate(174.64945,-108.00055)"><g
       id="g1"
       transform="translate(-14.4,108)"><path
         d="m -101.3153,128.90333 c -0.49172,-0.0588 -2.2552,-0.28283 -3.91885,-0.49774 -1.66365,-0.21491 -3.61774,-0.39066 -4.34243,-0.39054 -0.72468,1.1e-4 -2.52455,-0.22922 -3.9997,-0.50963 -1.47515,-0.2804 -3.54419,-0.63557 -4.59786,-0.78926 -2.336,-0.34072 -4.0518,-0.67881 -6.8968,-1.35897 -1.19417,-0.28549 -2.43272,-0.51869 -2.75233,-0.51821 -0.31961,4.7e-4 -1.2352,-0.23727 -2.03464,-0.52831 -0.79944,-0.29104 -1.76107,-0.52916 -2.13694,-0.52916 -0.37588,0 -1.18449,-0.23551 -1.79691,-0.52336 -0.61243,-0.28785 -1.37956,-0.52597 -1.70474,-0.52917 -0.32519,-0.003 -1.12981,-0.22772 -1.78806,-0.49895 -0.65825,-0.27123 -1.65661,-0.61535 -2.21857,-0.76471 -3.53059,-0.93837 -10.01708,-3.94947 -13.15075,-6.10473 -1.78117,-1.22504 -5.113,-4.46186 -5.113,-4.9672 0,-0.16798 -0.15893,-0.44205 -0.35318,-0.60903 -0.29701,-0.25533 -0.61144,-1.14211 -1.59233,-4.49085 -0.1922,-0.6562 0.94063,-4.26553 1.70886,-5.444587 0.81979,-1.25819 3.33632,-3.752984 4.17916,-4.143061 0.2902,-0.134308 1.15985,-0.654161 1.93254,-1.15523 0.7727,-0.501068 1.59056,-0.915668 1.81747,-0.921333 0.22692,-0.0057 0.70483,-0.248425 1.06204,-0.539467 0.35721,-0.291042 0.86124,-0.529951 1.12006,-0.53091 0.25882,-9.59e-4 0.81542,-0.238299 1.23689,-0.527423 0.42147,-0.289124 0.97205,-0.526465 1.2235,-0.527424 0.25146,-9.59e-4 0.90782,-0.239868 1.45859,-0.53091 0.55077,-0.291041 1.23279,-0.529166 1.51561,-0.529166 0.28282,0 1.00582,-0.223172 1.60666,-0.495936 2.21892,-1.007326 2.73057,-1.099767 3.01714,-0.545122 0.46763,0.905056 0.12639,2.402764 -0.68111,2.989427 -1.6154,1.17361 -4.42149,4.670399 -4.44522,5.539375 -0.005,0.1746 -0.23076,0.79371 -0.5022,1.3758 -1.47633,3.165797 0.20478,7.307507 4.30578,10.608097 1.70284,1.37049 5.94407,3.8117 6.62224,3.8117 0.18254,0 0.64334,0.227 1.024,0.50444 0.38066,0.27744 1.12316,0.58049 1.65,0.67344 0.52683,0.093 0.95788,0.27222 0.95788,0.39835 0,0.12614 0.48853,0.31078 1.08561,0.41031 0.59708,0.0995 1.32622,0.33864 1.6203,0.53135 0.29408,0.1927 1.18205,0.47433 1.97328,0.62583 0.79122,0.1515 1.78058,0.45865 2.19857,0.68254 0.41799,0.22389 1.28664,0.40707 1.93034,0.40707 0.64369,0 1.59265,0.18277 2.10879,0.40615 0.51614,0.22337 1.86307,0.51889 2.99318,0.65671 1.13011,0.13781 2.8019,0.42881 3.71509,0.64667 0.91318,0.21786 2.50584,0.39859 3.53924,0.40163 1.0334,0.003 2.58518,0.21299 3.4484,0.46657 1.39891,0.41095 2.98537,0.46127 14.59678,0.46302 11.540485,0.002 13.237115,-0.0509 14.865775,-0.46106 1.01116,-0.25466 2.73905,-0.46302 3.83974,-0.46302 1.1007,0 2.62979,-0.18452 3.39798,-0.41004 0.76819,-0.22553 2.37376,-0.51136 3.56792,-0.6352 1.19417,-0.12383 2.51606,-0.41483 2.93753,-0.64666 0.42147,-0.23183 1.20023,-0.42224 1.73058,-0.42314 0.53035,-8.9e-4 1.61836,-0.23975 2.4178,-0.53079 0.79944,-0.29105 1.74658,-0.52917 2.10476,-0.52917 0.35817,0 1.08016,-0.23813 1.6044,-0.52917 0.52425,-0.29104 1.15476,-0.5332 1.40113,-0.53814 0.24636,-0.005 0.90772,-0.23902 1.46968,-0.52019 0.56197,-0.28117 1.25165,-0.51604 1.53263,-0.52193 0.28098,-0.006 0.85571,-0.24728 1.27718,-0.5364 0.42147,-0.28913 1.02494,-0.52647 1.34104,-0.52743 0.31611,-9.6e-4 0.57474,-0.10788 0.57474,-0.2376 0,-0.12972 0.43105,-0.42929 0.95789,-0.66571 1.18086,-0.52991 2.89552,-1.49598 3.31127,-1.86562 0.17043,-0.15154 0.98694,-0.8113 1.81446,-1.46614 2.66033,-2.1052 4.3674,-4.95166 4.38131,-7.3056 0.0167,-2.825327 -1.8498,-5.709222 -5.99702,-9.265955 -0.70122,-0.60138 -1.18881,-1.186701 -1.08352,-1.300712 0.1929,-0.20889 4.57089,2.002203 5.32058,2.687149 0.2218,0.202642 0.48946,0.36844 0.59481,0.36844 0.10535,0 1.07335,0.734225 2.1511,1.631611 2.69906,2.24735 3.85919,3.6129 5.06487,5.961657 0.81387,1.5855 0.86078,5.131 0.0876,6.62513 -0.28098,0.54302 -0.51139,1.10814 -0.51202,1.25582 -0.002,0.46348 -2.78857,3.52885 -4.31098,4.74227 -0.80144,0.63877 -2.19937,1.55951 -3.10652,2.04609 -0.90715,0.48658 -1.80126,1.03437 -1.98691,1.21731 -0.18564,0.18294 -0.50771,0.33262 -0.7157,0.33262 -0.20799,0 -0.83199,0.23812 -1.38666,0.52917 l -2.01699,1.05833 c -0.55467,0.29104 -1.31004,0.52917 -1.67859,0.52917 -0.36855,0 -0.83262,0.16835 -1.03128,0.37412 -0.19865,0.20577 -0.91121,0.49631 -1.58346,0.64564 -0.67225,0.14933 -1.56476,0.4565 -1.98335,0.68258 -0.4186,0.22608 -1.00949,0.4118 -1.31309,0.41269 -0.3036,9e-4 -1.1657,0.22669 -1.91578,0.50176 -0.75008,0.27507 -1.93851,0.62366 -2.64096,0.77464 -0.70245,0.15098 -1.79444,0.39597 -2.42665,0.54441 -0.63221,0.14844 -1.78167,0.38951 -2.55437,0.5357 -0.7727,0.14619 -1.97964,0.38434 -2.68209,0.52923 -3.58374,0.73915 -7.25107,1.35474 -8.05532,1.35214 -0.49669,-0.002 -2.16342,0.22562 -3.70383,0.50494 -1.54042,0.27933 -4.41001,0.58599 -6.37688,0.68148 -1.96686,0.0955 -4.150846,0.28546 -4.853298,0.42215 -1.311208,0.25516 -13.850407,0.52725 -15.453937,0.33534 z m 11.83904,-73.741628 c -1.9178,-0.96587 -3.92049,-2.623686 -3.92049,-3.245366 0,-0.201349 -0.10043,-0.366088 -0.22317,-0.366088 -0.28284,0 -1.82033,-3.309569 -1.82033,-3.918402 0,-0.250283 -0.22989,-0.899349 -0.51087,-1.44237 -0.28098,-0.54302 -0.51088,-1.211288 -0.51088,-1.485039 0,-0.273751 -0.16797,-0.642122 -0.37326,-0.818602 -0.2053,-0.17648 -0.44726,-0.562371 -0.53771,-0.857534 -0.0904,-0.295163 -0.50137,-1.028552 -0.91318,-1.629753 -0.41181,-0.6012 -1.04782,-1.569342 -1.41336,-2.151425 -0.8996,-1.432512 -2.94593,-3.837552 -5.22265,-6.138141 -1.70082,-1.718664 -2.36267,-2.243309 -4.95028,-3.924073 -1.17902,-0.765827 -2.91453,-1.571556 -4.54683,-2.110915 -1.40495,-0.464235 -1.54369,-0.466506 -2.68209,-0.04389 -1.78203,0.661561 -6.18726,0.608823 -7.67818,-0.09192 -0.61243,-0.287846 -1.23273,-0.523356 -1.37846,-0.523356 -0.84089,0 -4.2161,-2.90877 -5.42658,-4.676654 -1.22105,-1.783301 -2.17062,-5.119628 -2.17062,-7.626471 0,-1.584218 0.64972,-4.804305 1.11907,-5.546278 0.22712,-0.359047 0.41295,-0.81328 0.41295,-1.009407 0,-0.598796 3.43341,-4.252018 4.62615,-4.922329 0.61665,-0.346553 2.03981,-0.971631 3.16258,-1.389063 2.47156,-0.918893 4.39919,-0.989652 6.26031,-0.229799 0.71285,0.291042 1.55047,0.531815 1.86137,0.53505 0.3109,0.0032 0.85265,0.238714 1.20387,0.523284 0.35123,0.28457 0.76828,0.520047 0.92679,0.523283 0.15852,0.0032 1.08604,0.771004 2.06117,1.706151 1.401,1.343557 2.0028,2.178589 2.86849,3.980193 l 1.09554,2.279924 0.0837,3.494287 c 0.0576,2.404361 0.20833,3.801116 0.48328,4.477977 0.21977,0.541029 0.39958,1.222761 0.39958,1.514959 0,0.292198 0.22946,0.921101 0.50992,1.397561 0.28045,0.47646 0.51035,1.056197 0.51087,1.288304 5.3e-4,0.232108 0.23085,0.637514 0.51183,0.900903 0.28098,0.263389 0.51088,0.574211 0.51088,0.690716 0,0.410936 1.30837,2.201116 2.88002,3.940579 1.73413,1.919287 5.32267,5.025997 5.80551,5.025997 0.16604,0 0.59416,0.238125 0.95137,0.529167 0.35721,0.291041 0.8943,0.529166 1.19354,0.529166 0.29924,0 0.96744,0.235038 1.48489,0.522305 0.8545,0.474387 1.893742,-0.308681 5.110901,-0.586979 2.475013,-0.214099 2.327816,-0.138826 5.397556,0.911028 0.50959,0.17428 1.83526,1.270313 2.0281,1.270313 0.19285,0 1.05109,0.714375 1.90721,1.5875 l 1.55658,1.5875 h 3.48056 c 2.92517,0 3.63131,-0.0806 4.42521,-0.505118 0.51955,-0.277814 1.24744,-0.64775 1.61754,-0.822079 0.37009,-0.174329 1.3184,-0.841736 2.10735,-1.483127 l 1.43445,-1.166164 v -1.468293 c 0,-3.076567 2.32831,-6.329512 5.39331,-7.535147 1.90993,-0.751278 4.22945,-0.837576 5.59048,-0.207995 0.49172,0.227457 1.1814,0.535129 1.53262,0.683715 1.14669,0.485103 2.92269,2.35558 3.63998,3.833594 0.61771,1.27282 0.70234,1.747493 0.7015,3.934549 -7.8e-4,2.018684 -0.097,2.650264 -0.51088,3.353397 -0.28045,0.47646 -0.50991,0.994521 -0.50991,1.151246 0,0.340663 -2.30494,2.877255 -2.61449,2.877255 -0.11881,0 -0.56582,0.267891 -0.99338,0.595313 -0.69697,0.533745 -1.07235,0.595312 -3.62963,0.595312 -2.51378,0 -2.96194,-0.07065 -3.77645,-0.595312 -1.82137,-1.173243 -7.12263,-0.64668 -10.23793,1.016911 -0.51955,0.277444 -1.10521,0.504443 -1.30146,0.504443 -0.19625,0 -0.56487,0.238125 -0.81915,0.529167 -0.25428,0.291041 -0.5882,0.529701 -0.74204,0.530356 -0.67408,0.0029 -3.39028,2.91247 -4.1065,4.398898 -0.41157,0.854171 -0.89712,1.648251 -1.07899,1.764622 -0.18187,0.116372 -0.33068,0.340844 -0.33068,0.498827 0,0.324101 -1.14188,1.505162 -1.91577,1.981512 -2.5523,1.570992 -3.049311,1.734944 -5.619617,1.853779 -2.500552,0.115609 -2.592859,0.09871 -4.38121,-0.801957 z"
         style="fill:#2aabe3;fill-opacity:1;stroke:#ffffff;stroke-opacity:1"
         id="path1-7" /><path
         d="m -93.884878,112.29056 -0.574733,-0.23928 V 88.418525 c 0,-22.309237 0.02644,-23.710515 0.472141,-25.021442 0.559537,-1.645751 1.430272,-2.657694 2.973969,-3.456259 1.089002,-0.563348 1.361428,-0.581802 7.463074,-0.505544 l 6.332811,0.07915 1.14363,0.799802 c 0.62899,0.439891 1.49109,1.33286 1.91577,1.984375 l 0.77216,1.184573 0.0678,23.822465 c 0.0571,20.064055 0.0115,23.902265 -0.28922,24.328235 -0.32489,0.46021 -0.86004,0.52304 -5.94287,0.69773 -7.652973,0.26303 -13.64543,0.24587 -14.334552,-0.041 z m -18.583042,-1.60489 c -1.26441,-0.28611 -3.39092,-0.76736 -4.72558,-1.06945 -1.33466,-0.30208 -3.11633,-0.7655 -3.95928,-1.02981 -0.84294,-0.26432 -1.93493,-0.59793 -2.42665,-0.74135 -2.48299,-0.72424 -6.10091,-2.29745 -9.01836,-3.92153 -0.39417,-0.21943 -0.829,-0.705 -0.9663,-1.07905 -0.15871,-0.4324 -0.22331,-11.385855 -0.17737,-30.07487 l 0.0723,-29.394766 0.71012,-1.546546 c 0.86559,-1.885158 2.94111,-4.092156 4.80314,-5.10742 l 1.38354,-0.754367 h 6.76908 c 6.71687,0 6.77795,0.005 7.91855,0.653208 2.85909,1.624737 4.39078,3.460735 5.3325,6.39193 l 0.54454,1.694955 -0.0648,33.200787 -0.0649,33.200789 -1.91578,0.0488 c -1.13132,0.0289 -2.85712,-0.16416 -4.21471,-0.47136 z m 50.619094,-0.67992 c -0.0937,-0.097 -0.17029,-13.165485 -0.17029,-29.04105 V 52.100042 l 0.83237,-1.31762 c 0.46509,-0.736244 1.39364,-1.698034 2.10443,-2.179786 l 1.27207,-0.862167 h 4.66935 c 4.54169,0 4.70434,0.01895 5.94924,0.693204 0.70395,0.381262 1.39556,0.917043 1.53691,1.190625 0.14136,0.273582 0.42539,0.497421 0.63118,0.497421 0.26007,0 0.37417,0.293672 0.37417,0.963019 0,0.5533 0.16426,1.087997 0.38608,1.256771 0.33979,0.258539 0.3859,3.306798 0.38462,25.429169 -8.1e-4,13.824477 -0.002,25.284252 -0.003,25.466152 -8e-4,0.1819 -0.17388,0.33073 -0.38462,0.33073 -0.21073,0 -0.38315,0.11548 -0.38315,0.25663 0,0.37321 -4.05714,2.30116 -7.66311,3.6415 -1.60013,0.59477 -2.99819,1.00257 -5.32491,1.55323 -0.89158,0.21101 -2.02635,0.55906 -2.5217,0.77344 -0.98683,0.42709 -1.42944,0.48298 -1.68971,0.21339 z"
         style="fill:#434055;fill-opacity:1;stroke:#ffffff;stroke-opacity:1"
         id="path1-4" /></g></g></svg>
